# xmcd CD database file
#
# Track frame offsets:
#	150
#	15409
#	30187
#	47152
#	64165
#	76542
#	93085
#	110862
#	127432
#	137707
#
# Disc length: 2047 seconds
#
# Revision: 0
# Processed by: cddbd v1.5.1PL0 Copyright (c) Steve Scherf et al.
# Submitted via: CDex 1.60beta1
#
DISCID=7b07fd0a
DTITLE=Junior Parker - Love Ain't Nothin' But A Business Goin' On
DYEAR=0
DGENRE=Blues
TTITLE0=Love Ain't Nothin' But A Business Goin' On
TTITLE1=Outside Man
TTITLE2=Darling Depend On Me
TTITLE3=Taxman
TTITLE4=River's Invitation
TTITLE5=(I Wonder) Where Our Love Has Gone
TTITLE6=Just To Hold My Hand
TTITLE7=You Know I Love You
TTITLE8=Lady Madonna
TTITLE9=Tomorrow Never Knows
EXTD=YEAR: 0
EXTT0=
EXTT1=
EXTT2=
EXTT3=
EXTT4=
EXTT5=
EXTT6=
EXTT7=
EXTT8=
EXTT9=
PLAYORDER=
